<?xml version="1.0" encoding="iso-8859-1"?>
<!-- Generator: Adobe Illustrator 26.4.1, SVG Export Plug-In . SVG Version: 6.00 Build 0)  -->
<svg version="1.1" id="&#x421;&#x43B;&#x43E;&#x439;_1"
	 xmlns="http://www.w3.org/2000/svg" xmlns:xlink="http://www.w3.org/1999/xlink" x="0px" y="0px" viewBox="0 0 1408 768"
	 enable-background="new 0 0 1408 768" xml:space="preserve">
<path fill="#FDFDFD" d="M704.13,767.88c-233.11,0-466.21-0.01-699.32,0.12C0.68,768,0,767.07,0,763.1
	C0.12,510.37,0.12,257.64,0,4.92C0,0.97,0.64,0,4.8,0c466.04,0.12,932.09,0.12,1398.13,0c4.33,0,5.07,1.03,5.06,5.16
	c-0.12,252.73-0.11,505.45-0.02,758.18c0,3.66-0.67,4.65-4.54,4.65C1170.34,767.87,937.24,767.88,704.13,767.88z"/>
<path fill="#040504" d="M1051.03,669.9c-0.02,6.65,0.01,13.31-0.11,19.96c-0.03,1.49,0.88,4.11-1.36,4.13
	c-2.78,0.02-1.58-2.8-1.59-4.35c-0.09-21.13-0.06-42.26-0.08-63.39c0-0.98-0.13-1.96-0.22-3.29c-4.97,1.39-9.7,2.86-14.51,4
	c-2.87,0.68-2.41,2.7-2.41,4.65c0.01,16.47,0.07,32.95,0.01,49.42c-0.01,1.62,1.2,5.27-2.98,2.83c-1.53-15.25-1.13-30.55-1.17-45.83
	c-0.02-7.56-0.02-7.6-7.48-5.46c-8.33,2.39-16.64,4.82-25,7.11c-3.6,0.98-5.58,2.88-6.76,6.46c-5.71,17.36-17.06,30.27-32.32,39.95
	c-2.1,1.33-4.23,2.81-6.88,2.66c-2.31-0.12-3.02-1.29-1.58-3.26c1.31-1.79,3.3-2.78,5.08-3.99c10.45-7.14,19.44-15.69,25.72-26.79
	c1.78-3.13,5.12-7.36,3.31-9.83c-1.9-2.59-6.31,0.65-9.54,1.58c-44.69,12.79-89.27,25.92-133.93,38.81
	c-7.84,2.26-15.71,4.46-23.5,6.9c-3.23,1.01-6.54,1.02-9.8,1.56c-1.77,0.45-3.55,0.86-5.31,1.35c-1.23,0.35-2.78,1.46-3.41-0.35
	c-0.78-2.23,1.55-2.23,2.75-2.6c7.94-2.45,15.92-4.79,23.9-7.11c76.33-22.13,152.67-44.25,229-66.39c7.47-2.17,7.96-2.94,7.96-10.89
	c-0.01-11.33-3.89-16.19-15.25-18.11c-72.38-12.21-144.67-24.88-217-37.38c-2.95-0.51-5.95-1.35-8.88-1.17
	c-2.25,0.13-5.91-3.82-6.67,1.17c-0.36,2.36-2.98,4.48-0.53,7.74c2.17,2.89-1.26,6.84-0.39,10.54c0.51,2.19-0.59,4.89,0.22,6.87
	c1.84,4.5-1.03,4.84-3.99,5.7c-12.29,3.58-24.56,7.25-36.82,10.94c-2.17,0.65-4.54,1.04-6.24,3.38
	c15.6,6.96,30.21,15.41,44.55,24.34c1.48,0.92,3.98,1.44,3.61,3.59c-0.38,2.2-2.97,1.76-4.64,2.12
	c-12.37,2.69-24.45,6.37-36.42,10.43c-1.96,0.66-3.16,0.45-4.88-0.76c-12.5-8.82-25.17-17.41-37.68-26.22
	c-1.87-1.32-3.35-1.05-5.03-0.23c-7.42,3.61-14.8,3.03-22.58,0.83c-11.19-3.18-22.5-6.39-33.98-7.96
	c-5.67-0.78-11.74-0.33-17.02-2.59c-8-3.43-14.96-2.21-22.84,0.94c-9.97,3.99-21.46,3.74-31.08,8.8c-8.15,4.28-16.07,4.91-24.8,3.19
	c-7.84-1.55-15.89-1.73-23.88-2.01c-1.63-0.06-3.74,0.06-4.11-1.94c-0.38-2.03,1.66-2.6,3.16-3.27c3.03-1.33,6.07-2.63,9.22-3.99
	c-1.89-3.05-4.28-3.34-7.31-2.46c-9.58,2.78-19.25,5.24-28.77,8.17c-3.16,0.97-6.04,1.13-9.19,0.36
	c-27.81-6.71-55.63-13.38-83.47-19.95c-3.05-0.72-4.43-1.89-4.26-5.28c0.3-6.14,0.09-12.31,0.09-18.45
	c-1.45-0.89-2.69-0.15-3.86,0.17c-33.7,9.18-67.38,18.39-101.07,27.6c-1.44,0.39-2.9,0.75-4.31,1.26
	c-7.66,2.78-9.25,5.08-9.32,13.31c-0.11,14.32-0.11,14.33,14.04,16.96c6.22,1.16,12.43,2.39,18.69,3.31
	c2.69,0.4,3.61,1.44,3.59,4.17c-0.08,14.83,0.03,29.66,0.02,44.48c0,1.34,0.62,3.57-1.6,3.46c-2.15-0.11-1.32-2.33-1.33-3.64
	c-0.09-13.83-0.19-27.66-0.03-41.48c0.03-2.97-0.82-4.06-3.71-4.46c-5.76-0.79-11.47-1.96-17.28-2.98c-1.18,1.46-0.6,3.16-0.61,4.7
	c-0.07,18.16-0.08,36.32-0.1,54.48c0,1.17,0.01,2.33-0.06,3.5c-0.05,0.85-0.27,1.73-1.31,1.8c-1.33,0.1-1.64-0.89-1.68-1.95
	c-0.05-1.33-0.02-2.67-0.02-4c0.02-18.33-0.03-36.65,0.11-54.98c0.02-3.11-0.36-4.9-4.07-5.1c-4.49-0.23-6.75-3.26-7.13-7.59
	c-0.32-3.65-0.55-7.31-0.56-10.97c-0.03-9.56,2.65-13.38,12.2-16.19c13.08-3.84,26.27-7.31,39.43-10.89
	c21.66-5.89,43.3-11.89,65.04-17.5c4.16-1.07,5.01-2.87,4.94-6.79c-0.25-14.99-0.17-29.99-0.09-44.98c0.01-1.39-1.47-5.52,2.87-2.59
	c2.47,2.04,1.73,4.89,1.74,7.45c0.07,19.99,0.04,39.98,0.04,59.97c0,8.57,0.02,8.5,8.23,10.48c23.32,5.61,46.67,11.14,70,16.73
	c6.45,1.55,6.76,1.34,6.77-5.4c0.02-20.82,0.03-41.65,0-62.47c-0.01-6.3-0.33-6.67-6.43-7.94c-23-4.8-45.97-9.68-68.98-14.41
	c-2.12-0.44-4.3-0.73-6.28-1.6c-1.59-0.7-3.69-1.21-2.9-3.8c0.96-1.95,2.94-1.96,4.66-2.43c15.41-4.19,30.78-8.51,46.25-12.43
	c3.3-0.83,3.08-1.98,1.98-4.27c-1.93-4.04-3.86-8.09-5.65-12.2c-0.41-0.93-1.55-1.98-0.39-3.16c0.87-0.89,1.82-0.33,2.78-0.13
	c24.44,5.07,48.88,10.14,73.34,15.1c1.83,0.37,2.95,1.2,3.95,2.62c4.34,6.1,8.85,12.08,13.08,18.25c2.44,3.56,1.07,7.76,1.08,11.64
	c0.01,3.62,0.92,4.09,4.24,3.05c6.34-1.98,12.97-3.1,19.24-5.25c15.09-5.16,30.25-4.13,45.33-0.64c8.45,1.95,16.38,2.02,24.1-2.19
	c2.36-1.29,4.43-1.04,6.95,0.14c7.97,3.74,16.05,7.86,24.86,8.49c7.57,0.54,14.67,2.58,21.95,4.09c1.14,0.24,2.41,0.34,3.35,0.94
	c9.24,5.96,17.1-0.19,25.3-2.89c3.4-1.12,0.46-2.61-0.34-3.41c-9.03-9.13-17.29-18.94-25.7-28.62c-2.27-2.61-5.15-4.81-6.21-8.33
	c-0.63-2.11-2.64-1.92-4.1-2.26c-5.41-1.24-10.36-3.54-15.21-6.12c-5.32-2.83-9.18-6.67-8.89-13.24c0.13-2.93-3.3-4.46-3.02-7.18
	c0.76-7.51-6.33-14.17-2.23-21.97c-4.01-8.66-0.16-14.15,7.25-18.35c1.73-0.98,0.21-2.42-0.25-3.44c-2.78-6.21-5.52-12.46-8.64-18.5
	c-1.61-3.12-0.83-4.4,2.22-5.44c8.17-2.8,16.27-5.81,24.42-8.67c1.74-0.61,3.67-0.65,2.5-3.52c-0.81-1.98,1.04-2.52,2.56-2.77
	c12.32-2.02,24.65-3.97,36.97-6.02c2.74-0.46,3.67,1.35,4.16,3.28c0.78,3.11,2.71,3.58,5.52,3.49c6.83-0.22,13.67-0.4,20.49-0.15
	c3.38,0.12,4.94-0.99,6.19-4.1c12.65-31.59,39.04-43.54,70.1-48.69c0.94-0.15,1.97-0.31,3.14,0.8c-4.99,2.35-3.81,6.51-2.92,10.42
	c3,13.2,12.5,19.55,25.92,17.07c15.83-2.92,26.87-12.42,34.66-26.11c0.71-1.24,1.64-2.38-0.06-3.88
	c-4.75-4.19-6.24-10.07-7.58-15.93c-0.59-2.59-0.76-5.27-1.25-7.89c-1.48-7.88-1.24-15.12,4.36-21.89c3.55-4.3,5.1-10.05,6.51-15.54
	c0.66-2.56,1.35-3.78,4.55-3.72c8.89,0.17,15.09-4.61,19.06-12.24c4.25-8.16,5.14-16.58,0-24.7c-4.38-6.91-12.51-6.99-17.52-0.47
	c-2.47,3.22-3.63,7.07-5.29,10.69c-0.67,1.47-1.31,3.42-3.3,3.31c-2.2-0.12-1.36-2.3-1.74-3.58c-1.33-4.45-2.51-8.95-4.81-13.04
	c1.27-2.91,6.6-5.03,8.74-3.37c1.78,1.39,0.93,2.85-0.16,4.3c-1.76,2.34-1.72,2.38-0.85,5.22c4.24-7.23,8.96-13.82,18.55-12.2
	c6.55,1.1,12.28,8.06,13.59,15.77c4.34-12.05,7.36-24.06,6.98-36.87c-1.39-47.03-34.08-80.75-72.42-88.04
	c-10.6-2.02-21.11-1.75-31.63,0.94c-8.5,2.18-17.41,1.98-25.82,5.24c-12.75,4.94-23.62,12.1-31.83,23.14c-1.19,1.6-2.14,4.03-5,2.71
	c-1.27-2.52,0.72-4.1,1.87-5.76c10.55-15.31,26.08-23.19,43.49-26.93c17.68-3.8,35.67-7.22,53.89-2.67c2.99,0.75,5-0.76,6.28-2.93
	c14.18-24.01,45.17-23.74,65.51-11.9c14.61,8.51,23.62,21.62,30.16,36.79c10.34,23.97,10.29,48.46,4.25,73.4
	c-2.93,12.12-6.09,24.23-6.83,36.76c-0.67,11.44,1.37,22.21,8.03,31.8c2.7,3.88,6.01,7.09,10.15,9.44c1.19,0.68,3.37,0.92,2.79,2.89
	c-0.56,1.93-2.62,1.8-4.26,1.7c-4.87-0.28-9.47-1.58-13.7-4.18c1.45,10.14,11.61,19.39,22.01,20.03c1.02,0.06,2.06-0.18,2.43,1.07
	c0.4,1.34-0.69,1.75-1.59,2.09c-2.66,1-3.97,3.48-5.84,5.32c-13.64,13.37-29.31,16.89-47.22,10c-1.18-0.46-2.19-1.26-3.74-0.93
	c-11.65,2.43-20.33-2.96-27.67-11.12c-6.11-6.79-9.72-15.02-12.37-24.13c-4.52,6.47-9.22,12.35-6.8,20.86
	c1.27,4.45,1.52,9.19,2.64,13.69c1.45,5.83,3.99,9.49,11.15,11.2c18.44,4.4,36.33,10.84,52.05,22.01c1.29,0.92,2.65,1.18,4.18,1.32
	c33.85,3.1,67.42,8.28,101.01,13.34c8.54,1.29,12.35,5.5,12.1,14.78c-0.32,11.81-1.4,23.6-2.28,35.38
	c-3.28,43.51-5.87,87.07-7.78,130.67c-1.87,42.77-3.13,85.56-3.37,128.37c-0.01,1.73,1.42,4.85-2.61,4.45
	c-1.81-2.11-1.46-4.7-1.47-7.16c-0.03-15.49-0.47-31,0.08-46.48c1.04-29.6,1.59-59.22,3.09-88.8c1.2-23.59,2.13-47.21,3.95-70.76
	c1.93-25.05,2.87-50.17,5.66-75.15c0.44-3.97,0.43-8-0.04-11.98c-0.62-5.23-2.98-7.93-8.12-8.71c-30.47-4.59-60.89-9.55-91.59-12.46
	c-0.64-0.06-1.3-0.3-1.98,0.15c15.8,18.27,21.09,40.68,24.77,63.62c2.72,16.97,3.69,34.09,3.2,51.29c-0.19,6.62-0.26,6.92-6.59,9.17
	c-1.82,0.65-2.94,1.75-3.07,3.51c-1.47,19.94-7.28,39.41-7.13,59.44c0.1,12.77,2.14,25.53,3.69,38.26c0.36,2.97,1.82,4.33,4.67,4.88
	c12.11,2.33,24.27,4.34,36.42,6.45c3.26,0.57,4.72-0.75,4.84-3.9c0.21-5.32,0.57-10.64,0.85-15.95c1.45-27.42,3.41-54.8,5.37-82.18
	c2.59-36.18,4.33-72.43,8.96-108.44c0.28-2.15,0.58-4.31,1.26-6.36c0.64-1.91,1.4-4.18,3.92-3.73c2.82,0.49,2.21,3,1.84,4.87
	c-1.91,9.66-2.74,19.46-3.59,29.25c-1.29,14.92-2.46,29.85-3.57,44.79c-1.24,16.76-2.31,33.53-3.56,50.29
	c-0.91,12.27-1.7,24.56-2.45,36.85c-0.79,12.95-1.41,25.91-2.63,38.83c-0.44,4.65,0.01,9.34-0.76,13.96c-0.41,2.45,1.09,3.52,3,4.55
	c9.51,5.1,14.25,17.39,10.8,27.78c-1,3.01-2.95,5.39-5.84,6.5c-3.85,1.48-4.56,4.25-4.53,7.89c0.09,11.16,0.03,22.32,0.03,33.49
	C1052.47,665.18,1052.46,667.68,1051.03,669.9z"/>
<path fill="#7693B4" d="M1051.03,669.9c-0.03-14.82,0.01-29.65-0.16-44.47c-0.03-2.89,0.91-4.12,3.73-4.71
	c5.17-1.08,7.42-4.62,7.28-9.82c-0.1-3.66,0.01-7.31-0.74-10.94c-1.27-6.11-4.66-10.36-10.7-11.92c-2.72-0.7-3.38-1.78-3.2-4.42
	c4.11-61.31,7.92-122.65,12.97-183.89c0.9-10.92,1.56-21.93,4.21-32.65c0.29-1.18,0.82-2.45-0.79-2.86
	c-1.59-0.4-1.89,1.11-2.18,2.16c-2.06,7.25-2.62,14.76-3.23,22.21c-2.53,30.87-4.95,61.75-7.1,92.65
	c-2.32,33.39-4.34,66.81-6.37,100.22c-0.23,3.81-0.84,5.54-5.45,4.6c-13.2-2.7-26.52-4.88-39.81-7.14c-2.38-0.4-3.32-1.33-3.55-3.8
	c-1.33-14.42-2.99-28.81-4.23-43.24c-0.65-7.56,2.16-14.77,3.12-22.18c1.5-11.55,2.95-23.12,4.29-34.69
	c0.39-3.4,1.26-5.69,5.41-4.87c2.79,0.56,4.33-0.53,4.39-3.7c0.61-31.99-1.54-63.59-13.08-93.87c-3.88-10.18-9.2-19.49-17.23-27.43
	c12.15,1.38,24.33,2.54,36.44,4.19c19.62,2.68,39.19,5.73,58.79,8.56c9.63,1.39,12.55,4.15,12.09,14.08
	c-0.75,16.13-2.24,32.22-3.3,48.34c-1.63,24.76-3.35,49.51-4.7,74.29c-2.97,54.73-5.03,109.49-5.25,164.31
	c-0.01,3.33,0.15,6.66,0.23,9.98C1065.64,669.62,1058.27,668.32,1051.03,669.9z"/>
<path fill="#453832" d="M785,132.08c2.13,0.15,2.62-1.64,3.6-2.95c12.9-17.33,30.43-26.24,51.71-28.04
	c5.98-0.51,11.57-2.59,17.56-3.25c12.72-1.39,25.01,0.2,36.52,5.15c33.68,14.49,53.35,39.63,57.78,76.61
	c2,16.74-0.72,32.27-7.69,48.78c-1.66-9.96-5.79-17.21-15.18-18.09c-9.43-0.88-13.18,6.75-16.4,14.52
	c-1.78-1.44-2.17-3.25-2.74-4.84c-0.63-1.74-1.86-3.94,1.75-4.14c1.19-0.06,2.28-1,1.89-2.42c-0.51-1.82-1.86-0.75-2.88-0.54
	c-2.15,0.43-4.88-0.57-6.06,2.35c-0.64,0.22-1.28,0.43-1.92,0.65c-1.51-1.76-3.6-1.5-5.56-1.56c-21.36-0.6-39.14-9.65-54.79-23.45
	c-13.42-11.83-23.96-25.85-30.91-43.35c-0.42,2.53,1.37,3.99,0.28,5.63c-0.65,0.31-1.3,0.61-1.95,0.92
	c-8.31-1.25-14.55,2.7-19.58,8.54c-8.22,9.55-11.1,21.37-12.96,33.46c-1.11,7.23-1.79,14.51-0.53,21.83
	c0.2,1.17,0.04,2.33-0.83,3.27c-2.5,0.32-3.43-1.71-4.59-3.22c-4.35-5.68-6.91-12.27-7.54-19.24c-1.84-20.35,1.43-39.67,12.97-57.04
	c1.67-2.51,3.58-4.77,6.03-6.55C783.64,134.11,784.32,133.09,785,132.08z"/>
<path fill="#7594B6" d="M803.95,693.73c31.42-9.21,62.82-18.44,94.25-27.61c26.03-7.6,52.07-15.14,78.11-22.69
	c2.33-0.68,4.71-1.2,7.77-1.97c-5.99,21.46-20.55,34.74-38.51,45.49c3.02,1.97,4.67,0.41,6.24-0.53
	c17.03-10.23,29.68-24.04,35.08-43.6c0.58-2.11,1.63-3.06,3.54-3.6c11.37-3.19,22.76-6.32,34.09-9.67c2.64-0.78,3.2-0.09,3.2,2.38
	c-0.02,17.31,0.04,34.63,0.08,51.94c-1.5-3.38,0.08-7.14-1.08-10.77c-17.88,9.11-37.42,10.27-56.37,13.78
	c-8.77,1.62-17.66,2.59-26.5,3.85c-1.32-1.97-2.84-0.49-4.26-0.2c-1.49,0.31-2.85,1.64-4.49,0.45c-5.67,1.62-11.56,1.26-17.31,1.57
	c-26.69,1.45-53.36,3.55-80.13,3.55C826.34,696.09,815.06,696.28,803.95,693.73z"/>
<path fill="#E8AC55" d="M426.93,507.2c0.56,2.63,2.9,2.42,4.72,2.81c25.36,5.35,50.71,10.75,76.12,15.88
	c4.16,0.84,5.4,2.38,5.36,6.72c-0.22,23.29-0.1,46.59,0.09,69.88c0.03,3.39-0.87,3.82-3.97,3.07c-26.81-6.5-53.65-12.87-80.5-19.19
	c-2.51-0.59-4.02-1.06-4-4.3c0.14-24.62,0.04-49.25,0.01-73.87C425.48,507.87,426.21,507.54,426.93,507.2z"/>
<path fill="#070807" d="M753.82,690.19c-14.39-0.41-28.29-4.11-42.35-6.65c-59.27-10.72-118.5-21.67-177.73-32.63
	c-68.89-12.75-137.77-25.6-206.65-38.4c-4.58-0.85-9.18-1.62-13.76-2.5c-1.35-0.26-3.61-0.03-3.2-2.14
	c0.41-2.09,2.52-0.99,3.78-0.77c15.24,2.72,30.47,5.52,45.69,8.33c74.96,13.85,149.92,27.72,224.88,41.55
	c51.22,9.45,102.48,18.76,153.67,28.37c13.08,2.46,25.68,1.68,38.43-2.07c90.59-26.65,181.24-53.1,271.88-79.59
	c1.76-0.51,4.6-2.32,5.24-0.19c0.89,2.93-2.8,2.63-4.52,3.13c-91.71,26.92-183.45,53.72-275.17,80.57
	C767.4,689.12,760.72,690.3,753.82,690.19z"/>
<path fill="#030403" d="M775.98,221.03c-2.58-16.18,0-31.76,5.9-46.81c4.23-10.79,10.91-19.39,23.24-21.72
	c1.87-0.35,4.04-1.4,4.87,1.57c-0.51,0.35-1.01,0.97-1.54,1.01c-11.36,0.82-17.99,7.88-22.48,17.39
	c-8.66,18.33-9.4,37.54-5.57,57.09c2.88,14.7,7.34,28.97,12.51,43.01c6.1,16.56,17.46,28.39,32.98,36.47
	c9.48,4.93,19.2,5.71,29.46,2.54c12.41-3.85,23.3-10.4,33.78-17.82c1.2-0.85,2.48-3.17,4.12-1.5c1.57,1.6-0.67,2.95-1.53,4.12
	c-8.09,11.03-17.8,20.21-30.51,25.75c-1.86,0.81-2.47,1.78-2.33,3.7c0.1,1.47-0.09,3-0.41,4.44c-0.2,0.91-0.78,1.98-2.08,1.56
	c-0.93-0.3-1.1-1.24-0.91-2.06c0.93-4.01-0.59-7.91-0.49-11.89c0.04-1.56-0.09-2.86-2.54-2.37c-22.2,4.5-37.51-7.26-51.27-22.2
	c-4.99-5.41-8.52-11.9-11.02-18.82c-6.03-16.74-11.42-33.66-14.23-51.3C775.4,222.47,775.36,221.74,775.98,221.03z"/>
<path fill="#0A0B0A" d="M835.79,589.78c8.94,2.22,17.64,4.34,26.32,6.54c4.02,1.02,8.01,2.18,11.99,3.33
	c1.21,0.35,2.95,0.35,2.84,2.17c-0.1,1.67-1.76,1.73-2.99,2.1c-14.16,4.18-28.18,8.79-41.89,14.29c-1.54,0.62-2.51,0.2-3.67-0.34
	c-9.78-4.52-19.55-9.05-29.31-13.6c-1.17-0.54-2.98-0.87-2.91-2.32c0.09-1.87,2.1-1.61,3.45-1.99c11.02-3.11,22.03-6.23,33.05-9.34
	C833.77,590.31,834.88,590.02,835.79,589.78z"/>
<path fill="#060706" d="M811.94,153.16c-0.37-2.66-4.41-6.22-2.01-7.26c3.28-1.42,3.64,3.64,4.78,5.97
	c12.91,26.49,32.19,46.23,59.94,57.01c7.78,3.02,15.97,4.4,24.37,4.17c2.01-0.05,4.25-0.37,3.92,2.84
	c-10.58,0.97-20.69-1.18-30.63-4.55c-1.68-0.57-3.27-1.71-5.21-1.23c-3.48,0.15-5.84-1.95-8.19-4.08c-0.56-2.04-2.58-2.42-4.03-3.36
	C835.84,190.25,821.36,173.9,811.94,153.16z"/>
<path fill="#060606" d="M839.69,298.4c-9.3,0.07-20.16-7.6-23.31-16.24c-0.88-2.42-0.1-3.47,2.13-3.85
	c12.46-2.15,24.94-4.24,37.4-6.4c2.51-0.43,3.66,0.45,4.01,3C861.43,286.05,850.91,298.32,839.69,298.4z"/>
<path fill="#050605" d="M775.98,221.03c-0.02,0.72-0.03,1.44-0.05,2.17c-3.07,0.39-4.43-1.88-5.82-3.9
	c-6.62-9.69-9.18-20.62-8.59-32.12c0.9-17.29,4.6-33.86,15.17-48.16c1.51-2.04,2.86-4.73,6.27-3.89c-0.04,2.7-2.54,3.76-3.8,5.65
	c-13.28,19.98-17.52,41.68-12.14,65.07C768.37,211.7,771.47,216.87,775.98,221.03z"/>
<path fill="#EBB253" d="M708.29,174.26c-7.63-2.37-16.26-4.21-24.35-7.74c-1.68-0.73-2.17-2.43-1.51-4.27
	c0.68-1.88,2.16-2.65,3.95-2.2c8.38,2.08,16.68,4.46,24.74,7.59c1.84,0.71,2.28,2.33,1.83,4.14
	C712.45,173.73,710.94,174.26,708.29,174.26z"/>
<path fill="#E9AE4E" d="M726.96,148.89c-1.63-0.02-2.58-0.95-3.53-1.89c-5.07-5.01-10.1-10.06-15.24-15.01
	c-2.1-2.02-3.02-4.17-0.75-6.41c2.25-2.22,4.17-0.69,5.94,1.08c5.17,5.14,10.42,10.2,15.56,15.37c1.3,1.31,2.31,2.9,1.11,4.9
	C729.31,148.17,728.21,148.78,726.96,148.89z"/>
<path fill="#EAB356" d="M687.19,201.97c-1.31,0.04-3.56-0.38-3.96-3.05c-0.42-2.85,1.53-4.34,4.08-4.66
	c6.42-0.81,12.86-1.44,19.29-2.09c2.48-0.25,4.29,0.65,4.57,3.37c0.27,2.65-1.16,4.1-3.67,4.38
	C701.07,200.62,694.63,201.22,687.19,201.97z"/>
<path fill="#040403" d="M860.18,238.72c-0.19,2.9-0.7,6.25-5.14,6.56c-3.75,0.27-6.82-3.7-6.96-8.73c-0.13-4.52,2.06-7.56,5.41-7.51
	C857.16,229.1,860.12,233.12,860.18,238.72z"/>
<path fill="#040404" d="M804.8,242.48c-0.12,2.89-1.11,5.78-5.07,6.16c-3.75,0.36-6.93-3.66-6.94-8.61
	c-0.01-3.57,0.83-6.77,5.2-6.97C801.66,232.9,804.76,237.12,804.8,242.48z"/>
<path fill="#E8B45C" d="M526.86,433.22c-1.38,3.62-3.04,8.14-4.84,12.61c-0.82,2.04-2.56,2.54-4.55,1.83
	c-1.79-0.65-2.86-2.2-2.27-3.93c1.64-4.87,3.49-9.68,5.51-14.4c0.77-1.8,2.69-1.87,4.36-1.21
	C526.9,428.84,527.23,430.47,526.86,433.22z"/>
<path fill="#E9B359" d="M510.8,424.36c-0.65,4.64-1.23,9.07-1.92,13.49c-0.35,2.28-1.68,3.59-4.12,3.32c-2.37-0.26-2.96-2-2.79-3.96
	c0.41-4.62,0.9-9.23,1.53-13.82c0.29-2.13,1.37-3.85,3.95-3.52C510.19,420.22,510.79,422.21,510.8,424.36z"/>
<path fill="#E9B151" d="M475.77,446.98c-0.06,1.27-0.71,2.26-1.77,2.8c-1.41,0.72-3.07,0.81-4.14-0.45
	c-3.2-3.78-6.31-7.64-9.3-11.58c-0.85-1.12-0.42-2.53,0.47-3.68c0.95-1.23,2.25-1.32,3.59-1.07
	C467.23,433.46,475.86,444.36,475.77,446.98z"/>
<path fill="#E8B051" d="M492.41,436.16c-0.1,2.15-0.75,3.8-2.83,4.41c-2.15,0.63-3.67-0.62-4.27-2.48
	c-1.26-3.94-2.32-7.95-3.28-11.98c-0.46-1.94,0.17-3.78,2.25-4.43c2.28-0.71,3.98,0.44,4.68,2.56
	C490.24,428.18,491.27,432.19,492.41,436.16z"/>
<path fill="#090909" d="M822.36,242.33c-0.29,4.9-1.36,9.64-4.35,13.55c-2.17,2.84-1.69,4.59,1.12,6.26
	c0.85,0.51,1.62,1.15,2.4,1.76c0.89,0.69,2.34,1.35,1.57,2.67c-0.9,1.55-2.35,0.79-3.42-0.02c-1.72-1.3-3.29-2.79-4.99-4.11
	c-2.5-1.95-2.35-4.02-0.66-6.45c2.97-4.29,5.15-8.9,5.14-14.28c0-1.37,0.09-3.01,1.98-2.67
	C822.92,239.37,822.45,241.05,822.36,242.33z"/>
<path fill="#0B0D0B" d="M931.9,223.45c-0.58,1.83-2.35,2.66-3.62,3.92c-2.18,2.16-4.61,3.99-0.48,6.84
	c1.93,1.33,2.53,3.56-1.21,3.61c-2.16,0.03-2.35,2.07-3.43,3.2c-0.99,1.03-1.75,2.92-3.5,1.37c-1.54-1.38,0.2-2.38,0.94-3.27
	c1.63-1.95,3.86-3.35,1.05-6.39c-1.53-1.65,6.32-10.81,8.91-10.59C931.3,222.21,931.75,222.65,931.9,223.45z"/>
<path fill="#0B0C0C" d="M858.89,206.03c3.17,0.48,5.59,2.46,8.19,4.08c0.43,2.61-0.29,4.33-3.04,2.48
	c-6.26-4.22-12.2-4.85-18.07,0.56c-0.85,0.78-1.81,0.9-2.55-0.14c-0.77-1.08,0.03-1.9,0.72-2.58
	C848.27,206.34,853.44,205.69,858.89,206.03z"/>
<path fill="#0D0E0E" d="M795.41,209.74c3.7-0.05,6.74,1.55,9.43,3.91c0.7,0.62,1.63,1.39,0.71,2.49c-0.83,0.98-1.74,0.55-2.65-0.01
	c-1.55-0.95-3.03-2.18-4.72-2.71c-4.42-1.38-8.12,0.05-11.2,3.43c-0.77,0.84-1.48,2.78-3.05,1.37c-1.63-1.46-0.05-2.78,0.88-3.77
	C787.66,211.45,791.15,209.7,795.41,209.74z"/>
<path fill="#16191C" d="M935.08,690.97c2.23-0.85,4.44-1.74,6.69-2.53c2.39-0.84,3.01,0.05,2.06,2.28
	c-1.78,0.79-3.59,1.52-5.33,2.39C936.1,694.31,935.2,693.31,935.08,690.97z"/>
<path fill="#DCA38F" d="M968.7,465.36c-10.81-0.48-21.63-1.27-32.44-1.3c-4.68-0.02-5.47-1.63-5.24-5.78
	c0.81-14.29,1.3-28.61,1.91-42.91c0.05-1.16,0.12-2.33,0.08-3.49c-0.03-0.65-0.19-1.37-1.04-1.47c-1-0.12-1.55,0.48-1.75,1.34
	c-0.18,0.8-0.21,1.65-0.24,2.48c-0.63,15.64-1.17,31.28-1.95,46.91c-0.2,4.03,1.05,6.06,5.23,5.65c2.75-0.27,3.85,0.62,3.56,3.61
	c-0.75,7.95-1.27,15.93-1.75,23.9c-0.14,2.42-0.68,3.22-3.28,2.3c-28.56-10.01-57.56-18.67-86.39-27.86
	c-2.48-0.79-4.11-2.27-5.62-4.49c-5.42-7.98-10.96-15.92-17.96-22.65c-3.99-3.84-8.61-6.87-13.86-8.68
	c-3.44-1.19-4.44-2.56-3.29-6.47c3.15-10.68,6-21.46,9.86-31.91c1.26-3.42,0.31-4.85-2.97-5.73c-3.85-1.03-7.57-2.57-11.44-3.52
	c-3.41-0.83-4.91-2.19-3.29-5.8c0.45-1.01,1.21-2.91-0.58-3.4c-1.78-0.49-1.8,1.41-2.28,2.59c-0.6,1.46,0.16,4.23-2.67,3.72
	c-2.42-0.43-5.69-0.45-5.26-4.49c0.05-0.49,0.12-1.25-0.14-1.45c-4.96-3.68-0.91-7.06,0.53-10.24c9.17-20.2,26.25-30.6,46.43-37.16
	c3.23-1.05,3.01,0.65,3.22,2.81c1.08,10.88,5.39,20.15,14,27.18c10.29,8.42,22.11,8.89,34.07,5.5
	c19.65-5.56,33.98-17.89,42.42-36.54c1.6-3.55,2.99-3.72,6.15-2.58c8.77,3.16,17.47,6.45,25.78,10.69
	c16.18,8.28,27.92,20.5,34.48,37.73c9.88,25.93,12.58,52.95,13.01,80.36c0.2,13.07,0.1,13.09-12.87,12.53
	c-4.16-0.18-8.31-0.49-12.47-0.7c-3.99-0.21-7.98-0.37-11.98-0.55C968.7,465.46,968.7,465.41,968.7,465.36z"/>
<path fill="#FEFEFE" d="M968.29,468.48c8.32,0.45,16.63,0.92,24.95,1.34c1.86,0.09,3.47-0.28,3.13,2.81
	c-2.74,25.32-5.51,50.63-13.35,75.03c-0.71,2.21-1.56,4.39-2.55,6.49c-4.35,9.18-10.35,12.44-20.53,11.18
	c-18.83-2.34-35.79-10.06-52.28-18.78c-27.51-14.54-53.74-31.26-79.93-48.02c-1.85-1.19-3.55-1.57-5.55-1.54
	c-10.33,0.14-19.54-2.89-27.99-8.95c-7.15-5.12-14.77-9.59-22.16-14.38c-1.67-1.08-3.38-2.17-4.85-3.5
	c-1.49-1.34-4.41-2.54-2.81-5.04c1.72-2.68,3.87-0.05,5.6,0.7c5.18,2.24,10.22,4.78,15.35,7.15c1.11,0.51,2.54,1.89,3.5,0.27
	c1.19-2-0.91-2.49-2.13-3.09c-8.18-4.07-16.43-7.99-24.57-12.14c-2.8-1.42-5.38-3.28-7.98-5.06c-0.9-0.62-2.04-1.47-1.44-2.84
	c0.69-1.56,2.15-1.38,3.46-1.05c1.45,0.37,2.86,0.88,4.27,1.37c9.42,3.24,18.84,6.49,28.26,9.73c1.16,0.4,2.62,1.62,3.3-0.39
	c0.66-1.92-1.29-2.11-2.37-2.49c-9.7-3.46-19.44-6.81-29.16-10.22c-2.66-0.94-5.31-1.91-7.89-3.04c-1.7-0.75-3.62-2.01-3.23-3.97
	c0.43-2.18,2.85-1.98,4.56-1.79c5.45,0.62,10.9,1.32,16.3,2.25c7.87,1.35,15.67,3.05,23.15,5.98c1.22,0.48,2.78,1.37,3.51-0.21
	c0.95-2.07-1.24-2.39-2.45-2.96c-9.06-4.23-18.71-6.85-28.07-10.27c-2.68-0.98-7.09-1.46-6.45-4.98c0.7-3.85,5.04-2.15,7.7-1.93
	c14.52,1.22,28.43,5.01,41.86,10.67c6.84,2.88,11.76,8.01,16.31,13.6c2.2,2.71,4.74,5.29,6.31,8.35
	c4.79,9.28,12.71,13.36,22.4,16.26c28.64,8.59,57.3,17.21,85.27,27.89c5.12,1.95,10.1,4.27,15.13,6.44
	c1.38,0.59,3.02,1.65,3.75-0.41c0.63-1.78-1.46-1.98-2.51-2.46c-5-2.25-10.01-4.49-15.14-6.42c-2.42-0.91-3.31-2.03-3.06-4.69
	c0.81-8.45,1.46-16.92,1.95-25.4c0.15-2.6,1.3-2.89,3.48-2.76c8.31,0.51,16.63,0.87,24.95,1.28
	C968.28,468.49,968.28,468.48,968.29,468.48z"/>
<path fill="#443832" d="M995.3,270.71c-3.98-0.3-6.73-2.72-9.65-4.83c-0.88-0.64-1.68-2.05-2.96-1.34c-1.44,0.8-0.89,2.44-0.67,3.63
	c0.83,4.48,2.81,8.51,5.51,12.16c3.67,4.98,7.6,9.88,13.57,12.11c3.64,1.37,2.45,2.43,0.62,4.27c-18.89,18.89-46.04,15.73-62.5-4.36
	c-1.78-2.17-3.11-4.7-4.72-7.01c-0.63-0.9-1.29-2.46-2.6-1.78c-1.72,0.89-0.49,2.33,0.07,3.42c3.5,6.8,8.96,11.91,14.65,16.81
	c0.59,0.51,1.21,0.97,2.84,2.27c-11.29-0.92-18.55-6.33-24.27-13.88c-4.64-6.12-7.67-13.17-9.83-20.58
	c-1.28-4.38,0.67-8.15,2.02-12.04c0.44-1.28,1.72-1.37,2.93-1.46c12.09-0.88,18.68-8.48,22.4-19.03c1.26-3.57,2.51-6.98,4.33-10.36
	c8.13-15.09,10.14-31.34,8.28-48.26c-1.65-15.05-5.44-29.34-13.69-42.21c-3.24-5.05-7.06-9.63-11.09-14.06
	c-1.17-1.29-3.05-2.32-2.21-4.59c1.93-5.22-0.92-9.08-3.97-12.59c-7.49-8.63-16.75-13.97-29.2-13.98
	c7.57-9.98,17.01-15.49,28.95-15.82c24.19-0.66,41.54,11.02,53.46,31.25c14.77,25.07,16.8,51.98,10.54,79.93
	c-3.11,13.89-7.12,27.71-7.75,41.96c-0.59,13.41,3.06,25.96,11.98,36.52C993.32,268.04,994.94,268.79,995.3,270.71z"/>
<path fill="#DCA390" d="M793.93,491.14c9.29,6.91,19.01,9.09,29.38,8.84c1.52-0.04,2.39,0.97,3.49,1.67
	c26.28,16.61,52.49,33.33,79.98,47.9c16.65,8.82,33.88,16.23,52.77,18.86c10.99,1.53,18.34-2.32,23.29-12.17
	c2.54-5.05,4.05-10.49,6.45-15.89c0.85,7.93,1.71,15.86,2.56,23.79c0.07,0.66,0.16,1.33,0.17,1.99c0.05,3.78,2.73,8.59,0.2,10.94
	c-1.66,1.55-6.82-0.57-10.39-1.18c-54.93-9.4-109.85-18.81-164.77-28.26c-6.59-1.13-6.65-1.24-5.5-8.13c0.35-2.08-1-2.17-2.22-2.49
	c-2.73-0.72-5.47-1.74-8.24-1.92c-4.37-0.28-5.08-2.43-5.19-6.42C795.58,516.56,794.68,504.45,793.93,491.14z"/>
<path fill="#FEFEFE" d="M790.85,490.82c0.73,12.96,1.39,25.92,2.23,38.87c0.19,2.94-0.57,3.77-3.53,3.14
	c-12.35-2.63-24.6-5.65-36.83-8.76c-5.12-1.3-8.11-4.25-11.25-7.58c-8.43-8.93-16.64-18.06-24.55-27.91
	c6.5-2.06,12.55-4.18,18.73-5.81c2.26-0.6,5.19-0.71,6.11,2.6c0.49,1.75,1.87,1.63,3.14,1.84c13.28,2.23,26.58,4.38,39.84,6.73
	C787.71,494.46,789.38,493.54,790.85,490.82z"/>
<path fill="#E8AC54" d="M564.61,590.24c-10.61-9.12-21.71-17.59-28.21-30.85c-5.18-10.56-12-20.33-18.2-30.39
	c-1.54-2.5-1.86-3.76,1.69-4.62c13.9-3.36,27.75-6.98,41.59-10.6c2.62-0.69,3.83-0.68,3.82,2.69c-0.05,23.82,0.09,47.64,0.15,71.47
	C565.45,588.7,565.72,589.6,564.61,590.24z"/>
<path fill="#FDFDFD" d="M710.47,480.44c-7.21-0.97-12.98-3.36-18.44-6.55c-3.99-2.33-6.67-5.51-6.13-10.5
	c0.17-1.59-0.64-2.75-1.33-4.11c-3.03-5.93-3.25-12.7-4.91-19.03c-0.85-3.21,1.53-7.19-0.45-11.18c-1.22-2.46,0.7-5.16,2.92-6.89
	c10.12-7.93,21.85-8.98,34.06-7.73c0.7,0.07,1.7,0.63,1.93,1.21c0.45,1.15-0.73,1.76-1.51,2.27c-2.54,1.66-5.48,2.33-8.37,3.08
	c-6.76,1.76-13.49,3.6-19.25,7.83c-0.92,0.67-2.35,1.36-1.58,2.66c0.71,1.19,1.95,0.62,3.06-0.04c11.36-6.72,23.15-3.89,34.91-1.5
	c1.29,0.26,2.98,0.79,3.01,2.19c0.03,1.65-1.94,2.36-3.17,2.56c-2.76,0.45-5.62,0.36-8.45,0.4c-8.6,0.12-16.87,1.59-24.45,5.87
	c-1.34,0.76-3.69,1.54-2.62,3.46c1.05,1.89,2.64-0.07,3.81-0.69c8.65-4.52,17.86-6.15,27.51-5.46c1.74,0.12,4.08-0.07,4.37,2.33
	c0.26,2.2-1.71,3-3.48,3.61c-7.36,2.56-15.13,3.97-22.06,7.67c-2.15,1.15-6.57,1.96-5.29,4.6c1.35,2.78,4-0.96,6.03-1.73
	c3.56-1.35,7.01-3.03,10.77-3.81c1.9-0.4,4.34-1.43,5.47,0.7c1.24,2.35-1.34,3.47-2.83,4.49c-5.62,3.84-11.39,7.45-17.06,11.22
	c-1.08,0.72-3.4,1.09-2.06,3.1c0.99,1.48,2.36,0.04,3.51-0.47c2.52-1.13,5.1-4.58,7.11-3.53c1.81,0.94,2.02,4.96,2.91,7.63
	C709.04,475.97,709.63,477.85,710.47,480.44z"/>
<path fill="#FDFDFD" d="M639.97,521.86c-9.88,4.28-19.85,7.73-30.19,10.09c-8.75,2-17.48,4.07-26.16,6.32
	c-2.53,0.66-6.67,0.55-3.58,5.61c0.72,1.18-0.43,4.56-0.96,6.7c-1.05,4.29-0.33,8.06,0.72,12.08c0.48,1.84,0.36,4.02-0.13,5.88
	c-2.25,8.55-1.42,10.17,6.73,12.49c2.03,0.58,4.29,0.7,6.08,2.4c-6.68,3.29-13.66,5.38-20.65,7.45c-2.72,0.8-3.46-0.2-3.46-2.85
	c0.02-19.31-0.06-38.61-0.14-57.92c-0.01-1.62,0.14-2.77,2.13-3.25c13.06-3.18,25.82-7.7,39.24-9.3
	C620,516.32,629.86,519.64,639.97,521.86z"/>
<path fill="#E8AD56" d="M563.17,508.51c-14.55-3.16-27.69-5.98-40.82-8.86c-10.4-2.28-20.75-4.8-31.19-6.88
	c-4.45-0.89-7.61-2.62-9.1-7.17c-1.01-3.1-2.65-6-4.34-9.73c12.44,2.56,24.13,4.97,35.81,7.38c10.75,2.22,21.48,4.58,32.26,6.6
	c3.56,0.67,5.95,2.24,7.87,5.29C556.31,499.32,559.39,503.23,563.17,508.51z"/>
<path fill="#B8D0B3" d="M793.92,428.07c-2.64-0.71-5.28-1.42-7.91-2.13c-4.7-2.56-9.44-4.9-15.03-3c-2.64-0.04-5.28-0.08-7.92-0.13
	c-2.13-0.82-1.88-2.54-1.44-4.18c1.77-6.59,3.37-13.25,5.85-19.62c1.69-4.33,15.78-10.66,20.2-9.23c1.74,0.56,3.49,1.14,5.26,1.58
	c3.68,0.9,6.46,2.62,6.89,6.8c0.07,0.65,0.26,1.4,0.7,1.85c4.97,5.16,3.05,10.7,1,16.28c-1.09,2.97-1.84,6.05-2.82,9.06
	C797.94,427.66,796.71,429.29,793.92,428.07z"/>
<path fill="#DCA28E" d="M871.82,363.29c-18,0-32.38-14.54-32.74-32.74c-0.1-5,3.68-3.81,6.15-4.48c3.23-0.86,2.31,2.04,2.47,3.52
	c2.06,18.98,15.86,28.41,34.32,22.91c14.9-4.44,25.9-13.87,33.04-27.74c1.71-3.32,6.46-4.22,9.21-1.9c1.35,1.14,0.32,2.09-0.02,3.07
	C917.36,345.65,892.57,363.3,871.82,363.29z"/>
<path fill="#B8D1B1" d="M629.99,597.91c-7.59,3.16-15.8,3.85-23.66,5.95c-5.8,1.55-11.61,3.14-16.85,6.07
	c-3.83,2.14-7.49,2.63-11.82,1.99c-9.21-1.37-18.5-2.16-28.67-3.3c3.13-1.3,5.54-2.52,8.09-3.31c3.33-1.04,3.81-2.28,0.86-4.44
	c-1.46-1.07-2.79-2.29-4.87-4.01c6.07-1.14,11.58-1.33,16.93-2.57c9.63-2.23,18.86-5.4,27.5-10.18c2.71-1.51,4.89-1.46,7.8-0.22
	c7.84,3.35,16.19,4.96,24.61,6.18C629.7,592.68,630.1,595.29,629.99,597.91z"/>
<path fill="#E8AD56" d="M516.14,603.7c0-24.87,0-48.23,0-73c8.77,14.75,16.87,28.38,24.99,41.99c0.7,1.17,0.65,2.1-0.25,3.12
	C532.94,584.74,525.02,593.69,516.14,603.7z"/>
<path fill="#FDFDFD" d="M671,568.8c-5.74-1.35-11.04-2.68-16.39-3.83c-2.07-0.45-2.65-1.59-2.62-3.52
	c0.09-4.66,0.15-9.32,0.07-13.98c-0.04-2.43,1.28-3.58,3.3-4.39c13.11-5.23,26.03-10.98,39.38-15.5c6.61-2.23,13.06,2.39,20.93,3.3
	c-12.71,5.92-24.66,9.95-36.35,14.63c-8.32,3.33-8.31,3.38-8.33,12.13C670.99,561.27,671,564.89,671,568.8z"/>
<path fill="#B9D1B3" d="M761.03,629.9c-10.32-6.91-20.64-13.82-31.82-21.3c9.9-3.45,18.84-6.58,27.8-9.67
	c1.57-0.54,2.91,0.43,4.26,1c11.8,4.97,23,11.07,33.8,17.92c-0.78,3.27-1.59,6.52-2.23,9.82c-3.93,1.11-7.86,2.23-11.78,3.34
	c-1.23,0.36-2.32-0.19-3.32-0.71c-4.09-2.13-8.18-2.51-12.46-0.56C763.96,630.34,762.48,630.91,761.03,629.9z"/>
<path fill="#BBD2B5" d="M737.88,433.04c0,5.29,0,10.58,0,15.87c-2.65,1.27-2.83-1-3.09-2.44c-0.81-4.58-2.53-8.96-2.97-13.61
	c-0.35-1.21-0.71-2.42-1.06-3.63c-2.99-3.96-3.77-8.83-5.39-13.34c-2.25-6.25-3.78-12.75-6.32-18.91c-1.3-3.16-1.29-6.13,1.21-8.8
	c0.79-0.85,1.32-1.9,1.78-2.98c2.84-6.75,9.9-9.31,16.82-6.11c-0.2,12.29,0.48,24.61-0.97,36.87
	C734.76,421.64,734.16,427.34,737.88,433.04z"/>
<path fill="#6C886B" d="M793.92,428.07c1.85,0.03,2.88-0.59,3.43-2.65c1.52-5.75,3.37-11.41,5.14-17.1c0.35-1.13,0.97-2.37,0-3.27
	c-2.81-2.6-4.5-5.63-4.64-9.53c-0.05-1.48-1.56-1.57-2.6-1.93c-3.44-1.19-6.89-2.33-10.37-3.41c-1.7-0.53-3.21-0.35-4.33,1.37
	c-1.42,2.19-3.72,3.99-6.06,4c-4.99,0.01-5.8,3.31-6.8,6.89c-1.56,5.57-3.19,11.13-4.87,16.66c-0.41,1.33-0.77,2.54,0.24,3.72
	c-1.83,0.46-3.66,0.92-5.66,1.43c2.81-14.14,6.91-27.73,12.63-40.83c1.05-2.41,2.03-3.71,5.17-2.68
	c11.02,3.61,22.14,6.94,33.27,10.21c2.93,0.86,3.34,2.13,2.43,4.96c-2.99,9.31-5.64,18.73-8.48,28.09
	C800.09,431.63,801.7,430.38,793.92,428.07z"/>
<path fill="#6B876A" d="M747.1,437.13c-0.97,1.94-0.14,3.92-0.14,5.88c-0.64,7.26-0.6,14.56-1.13,21.82
	c-0.68,4.08-1.29,8.17-2.07,12.23c-0.24,1.24-0.58,2.86-2.28,2.86c-2.17-0.01-1.51-1.88-1.44-2.99c2-31.87,0.26-63.82,1.82-95.71
	c0.13-2.61,1-3.45,3.53-3.42c6.32,0.08,12.65,0.14,18.95-0.17c4.4-0.22,5.43,1.06,3.1,4.85c-0.51,0.83-0.91,1.73-1.36,2.6
	c-1.63,0.44-3.29,0.46-4.95,0.36c-2.77-0.16-4.84,0.84-6.15,3.34c-0.39,0.73-0.82,1.57-1.5,1.97c-6.32,3.77-6.09,9.78-6.18,16.1
	C747.17,416.94,745.91,427.02,747.1,437.13z"/>
<path fill="#B8D4B4" d="M676.11,550.07c1.95-0.73,3.9-1.45,5.85-2.18c4.92-0.62,9.9,0,14.83-0.78c7.06-1.11,12.25-4.55,15.2-11.15
	c1.93-1.52,3.95-1.14,6.1-0.46c7.24,2.28,14.51,4.46,21.77,6.68c1.18,7.01,0.1,9.07-5.8,11.42c-4.02,1.6-8.14,2.9-12.12,4.59
	c-2.52,1.08-5.06,1.55-7.75,0.61c-1.1-0.38-2.31-0.57-3.45-0.39c-12.48,1.93-23.04-5.06-34.58-7.45
	C675.99,550.92,676.01,550.43,676.11,550.07z"/>
<path fill="#BAD3B4" d="M729.1,534.12c4.26-1.43,8.52-2.86,12.78-4.29c0.6-0.33,1.34-0.54,1.89-0.26c6.03,3.09,12.13,1.6,18.23,0.37
	c9.63,2.06,19.27,4.11,28.9,6.17c1.17,3.65-1.65,5.99-2.91,8.84c-7.39,2.38-14.75,4.85-22.18,7.1c-2.98,0.9-4.13,2.51-4.09,5.67
	c0.16,11.4,0.07,22.8,0.08,34.2c-3.15-2.02-1.76-5.22-1.93-7.92c-0.46-7.33,1-14.66,0.22-22.01c0.21-4.38-0.25-8.81,0.76-13.15
	c1.7-2.26,4.48-2.72,6.73-4.05c1.68-1,4.02-1.8,3.43-4.26c-0.65-2.73-3.16-3.29-5.57-3.09c-3.66,0.29-7.13,1.44-10.48,2.96
	c-1.62,0.74-3.05,2.06-5.05,1.67c-7.26-2.08-14.52-4.17-21.78-6.25C727.46,534.68,728.44,534.49,729.1,534.12z"/>
<path fill="#BCD4B8" d="M747.1,437.13c-3-5.66-2.33-11.84-1.84-17.75c0.59-7.12,0.58-14.22,0.54-21.33
	c-0.01-2.39,0.39-4.08,2.88-5.05c2.2-0.86,3.56-2.88,5.08-4.64c1.14-1.33,0.59-4.16,2.85-4.21c3.15-0.06,6.54-1.47,9.48,0.92
	c-4.47,9.94-6.94,20.53-10.18,30.88c-0.59,0.99-0.99,2.1-1.79,2.95c-4.54,4.78-4.47,10.21-2.25,15.94
	C750.27,435.6,748.69,436.36,747.1,437.13z"/>
<path fill="#6D896B" d="M738.86,379.08c-4.2-0.7-8.17,1.14-12.31,1.09c-0.32,0-0.65,0.13-0.95,0.26c-0.79,0.34-1.75,0.96-1.49,1.75
	c1.7,5.4-6.67,7.1-4.31,13.17c4.29,11.06,8.12,22.32,10.96,33.87c-4.08-1.14-6-3.93-7.24-7.95c-4.54-14.72-9.25-29.39-15.25-44.2
	c11.78-1.88,23.2-3.67,34.61-5.53c1.76-0.29,3.18,0.05,3.31,1.92c0.19,2.79-2.19,1.44-3.22,1.41
	C739.87,374.78,738.84,376.31,738.86,379.08z"/>
<path fill="#BBD2B6" d="M711.08,393.93c2.9,5.27,4.01,11.18,6.46,17.49c-8.59-0.74-16.61-0.54-24.42,1.72
	c-3.67-0.7-6.65-5.53-5.9-9.61c0.21-1.14,0.77-2.19,1.04-3.32c1.86-7.81,5.01-10.91,12.73-11.81
	C705.47,387.88,707.89,391.76,711.08,393.93z"/>
<path fill="#E8AD53" d="M561.6,592.97c-3.88,0-7.77,0.01-11.65,0c-1.62,0-3.81-0.57-2.32,2.39c0.72,1.44-0.37,1.76-1.29,2.02
	c-8.67,2.49-17.36,4.94-26.56,6.52c7.71-8.63,15.43-17.25,23.13-25.89c0.96-1.08,1.77-1.11,2.9-0.12
	c5.33,4.63,10.73,9.19,16.1,13.77C561.82,592.1,561.71,592.54,561.6,592.97z"/>
<path fill="#BCD3B7" d="M711.16,462.18c1.98-1.51,4.01-2.97,5.93-4.55c1.42-1.16,3.52-2.73,3.05-4.32
	c-2.09-7.08,5.03-6.08,7.57-9.67c2.97,9.74,5.78,18.94,8.58,28.15c-2.28,4.83-8.65,6.64-12.6,3.46c-1.69-1.36-3.25-3.02-5.41-3.4
	C712.71,470.88,711.34,467.01,711.16,462.18z"/>
<path fill="#6A896B" d="M781,482.97c2.55,1.71,7.42,2.2,5.78,6.56c-1.41,3.75-5,0.54-7.4,0.24c-10.33-1.32-20.59-3.24-30.89-4.79
	c-2.66-0.4-3.73-1-2.96-4.09c2.1-8.34,3.79-16.77,5.67-25.29c1.85-0.18,2.89,1.01,3.86,2.31c0,0.99,0.53,2.02,0.24,2.94
	c-2.11,6.79,3.01,11.31,5.19,16.74c0.47,1.18,1.49,1.78,2.68,1.96C769.16,480.43,774.9,482.61,781,482.97z"/>
<path fill="#FCFCFC" d="M660.3,600.41c-0.47,0.09-0.64,0.18-0.79,0.14c-11.77-2.71-11.81-2.71-12.2-14.85
	c-0.17-5.16,0.01-10.33-0.19-15.49c-0.11-2.77,0.41-3.86,3.58-3.24c9.56,1.87,9.59,1.74,9.6,11.67
	C660.3,585.92,660.3,593.2,660.3,600.41z"/>
<path fill="#70896C" d="M652.04,540.98c-0.89,1.23-1.78,2.59-3.6,1.91c-8.35-3.08-16.61-6.35-25.43-11.43
	c9.86-3.39,18.83-5.78,27.19-9.53c9.52-4.28,18.3-5.05,27.43,0.65c2.85,1.78,6.37,2.49,9.8,3.77c-1.71,1.61-3.46,2.39-5.5,2.51
	c-7.91-5.02-16.69-1.22-25.02-2.23c-4.71-0.57-9.48,2.52-14.01,4.45c-3.17,1.35-1.15,3.09,0.45,4.38
	C646.04,537.63,649.84,538.05,652.04,540.98z"/>
<path fill="#CA9351" d="M558.41,511.54c-4.46,1.16-8.87,2.32-13.3,3.42c-0.92,0.23-2.37,0.69-2.65-0.47
	c-1.03-4.27-4.53-3.31-7.26-3.45c-6.77-0.35-13.47-2.39-20.35-0.66c-2.44,0.61-1.57-1.66-1.46-2.66c0.35-3.41-1.44-4.52-4.4-4.31
	c-4.21,0.3-8.59-0.19-12.24-1.62c-3.63-1.41-6.78-3.88-10.98-3.99c-1.15-0.03-0.97-1.66-0.61-2.53c0.71-1.72,2.07-0.46,2.96-0.27
	c14.13,3.03,28.25,6.16,42.36,9.29c8.44,1.87,16.87,3.77,25.3,5.68C556.69,510.19,557.84,510.01,558.41,511.54z"/>
<path fill="#B8D0B3" d="M598.11,538.12c6.31-1.86,12.59-3.84,20.39-4.5c-2.63,2.35,0.27,6.15-4.06,6.97
	c-0.75,0.14,0.36,1.38,0.86,1.9c2.73,2.84,6.15,3.63,10.36,3.4c-1.29-2.56-4.6-2.66-5.37-6.13c6.85,2.86,13.27,5.55,19.69,8.23
	c0.25,1.21-0.5,1.99-1.41,2.33c-6.38,2.37-12.9,4.58-19.77,2.74c-5.59-1.5-10.88-3.99-16.2-6.3
	C598.89,545.15,597.05,542.33,598.11,538.12z"/>
<path fill="#6F896B" d="M676.11,550.07c9,2.58,17.98,5.26,27.03,7.7c3.08,0.83,6.12-1.8,9.25-0.82c9.64,3.03,16.71-4.35,25.17-6.03
	c0.71-0.14,1.49-0.77,1.15-1.29c-1.91-2.91,1.44-4.89,1.16-7.46c5.07,1.44,10.14,2.88,16.31,4.64
	c-14.58,6.28-28.16,11.99-42.31,16.26c-2.33,0.7-4.25-0.47-6.24-1.1c-10.14-3.16-20.24-6.43-30.32-9.77
	C676.65,552,673.49,552.42,676.11,550.07z"/>
<path fill="#BCD6B7" d="M652.04,540.98c-3.89-1.07-7.45-2.92-10.68-5.22c-3.32-2.36-3-4.71,0.85-5.93
	c7.12-2.25,13.85-6.79,21.95-3.97c1.12,0.39,2.74,0.09,3.89-0.43c5.58-2.49,9.76,0.26,13.89,3.43c-0.25,0.13-0.51,0.21-0.79,0.25
	c-3.21,1.03-6.51,0.16-9.75,0.42c-5.41,0.44-9.72,2.62-11.5,8.23C657.28,538.84,654.66,539.91,652.04,540.98z"/>
<path fill="#768F73" d="M755.23,573.63c0.27,3.1-1.68,3.32-3.1,3.85c-12.94,4.79-25.91,9.49-38.84,14.29
	c-1.77,0.66-3.24-0.04-4.83-0.43c-14.23-3.45-28-8.48-42.04-12.56c-1.31-0.38-3.65-0.57-3.12-2.46c0.75-2.66,2.91-0.57,4.11-0.24
	c13.92,3.87,27.82,7.86,41.65,12.07c2.01,0.61,3.41,0.2,5.15-0.41C727.8,583.01,741.41,578.37,755.23,573.63z"/>
<path fill="#779274" d="M757.54,562.14c-0.29,3.18-2.25,3.63-3.87,4.32c-12.42,5.27-25.33,9.18-38.06,13.61
	c-2.18,0.76-4.13,0.5-6.27-0.17c-10.65-3.29-21.31-6.58-32.05-9.58c-2.88-0.8-4.09-1.81-2.91-4.96
	c11.75,3.67,23.48,7.27,35.15,11.06c2.04,0.66,3.66,0.65,5.68-0.06c12.87-4.53,25.8-8.88,38.71-13.28
	C754.98,562.75,756.07,562.53,757.54,562.14z"/>
<path fill="#6D8A6D" d="M711.08,393.93c-1.25-0.41-2.95-0.44-3.69-1.3c-5.2-6.01-10.06-1.1-15.02,0.27
	c-1.64,0.45-2.45,1.57-2.35,3.34c0.15,2.68-1,5.08-1.56,7.56c-0.8,3.58,1.42,7.04,4.66,9.33c-3.02,2.27-4.8,1.49-6.21-2
	c-2.11-5.23-4.51-10.36-7.05-15.4c-1.27-2.52-1.09-3.85,1.75-4.8c7.55-2.53,15.06-5.21,22.56-7.89c2.09-0.75,3.4-0.55,3.97,1.95
	C708.84,388.05,710.79,390.72,711.08,393.93z"/>
<path fill="#758F70" d="M598.11,538.12c0.9,5.28,4.29,7.89,9.28,9.2c3,0.79,5.78,2.39,8.7,3.5c8.44,3.19,16.26,0.99,23.89-2.82
	c1.83,0.67,3.66,1.34,6.42,2.34c-2.45,0.79-4.11,0.98-5.38,1.79c-12.11,7.74-23.67,5.28-35.5-1.03c-6.57-3.5-13.79-5.77-20.7-8.63
	c-0.42-0.17-0.72-0.61-1.64-1.42C588.5,540.01,593.3,539.06,598.11,538.12z"/>
<path fill="#69846A" d="M711.16,462.18c0.62,1.15,1.51,2.23,1.81,3.46c0.7,2.83,1.8,4.65,5.22,4.71c1.62,0.03,3.4,1.3,4.79,2.41
	c4.43,3.52,8.98,3.27,13.32-0.97c1.91,6.54,1.51,7.33-4.61,9.15c-4.6,1.37-9.23,2.65-13.78,4.19c-1.91,0.65-3.03,0.69-3.66-1.54
	c-1.61-5.74-3.35-11.44-5.04-17.16C708.63,464.44,708.77,462.79,711.16,462.18z"/>
<path fill="#768F74" d="M755.74,590.17c-0.74,2.2-2.32,2.36-3.71,2.83c-12.76,4.26-25.57,8.39-38.23,12.91
	c-3.12,1.11-4.81-1.18-7.21-1.67c-9.44-1.93-18.82-4.16-28.21-6.31c-4.05-0.93-8.07-1.96-12.11-2.91c-1.26-0.3-3.07-0.26-2.77-2.08
	c0.33-1.99,2.18-1.11,3.28-0.85c14.39,3.36,28.77,6.74,43.11,10.32c1.67,0.42,2.9,0.62,4.62,0.05c11.36-3.72,22.78-7.25,34.21-10.77
	C750.88,591.01,752.98,589.86,755.74,590.17z"/>
<path fill="#748F71" d="M757.42,555.89c-0.24,3.42-2.3,3.95-4.14,4.69c-12.81,5.17-25.89,9.53-39.12,13.48
	c-0.94,0.28-1.73,0.62-2.83,0.26c-11.54-3.74-23.12-7.37-34.68-11.06c-1.18-0.38-3.22-0.45-2.61-2.24c0.76-2.19,2.51-0.55,3.71-0.17
	c10.46,3.29,20.92,6.61,31.33,10.07c2.16,0.72,3.95,0.73,6.14-0.07C729.1,565.82,743.03,560.97,757.42,555.89z"/>
<path fill="#728C6F" d="M711.79,569.15c-1.91-0.64-3.95-1.35-6-1.99c-8.71-2.75-17.43-5.47-26.13-8.23
	c-1.42-0.45-2.79-1.05-4.18-1.6c-1.04-0.41-1.82-1.16-1.34-2.27c0.63-1.44,1.74-0.3,2.5-0.07c7.92,2.45,16.01,4.52,23.67,7.64
	c8.19,3.34,15.7,3.24,23.85-0.25c9.6-4.11,19.64-7.19,29.17-11.53c1.27-0.58,3.15-2.82,4.14-0.7c1.09,2.33-1.37,3.24-3.32,3.95
	c-9.51,3.48-18.98,7.06-28.5,10.5C721.12,566.22,716.52,567.6,711.79,569.15z"/>
<path fill="#768F74" d="M755.38,595.51c-0.52,2.03-2.43,2.08-3.89,2.57c-12.47,4.16-24.96,8.24-37.44,12.37
	c-1.62,0.54-3.16,0.63-4.88,0.22c-13.91-3.33-27.84-6.57-41.76-9.83c-0.49-0.11-0.97-0.22-1.46-0.35c-1.12-0.3-2.55-0.54-2.27-2.08
	c0.32-1.79,1.75-1.04,2.82-0.8c7.46,1.71,14.91,3.44,22.37,5.17c7.45,1.73,14.93,3.33,22.32,5.29c1.87,0.5,3.25-0.08,4.76-0.56
	c12.22-3.87,24.41-7.83,36.62-11.72C753.44,595.52,754.32,594.66,755.38,595.51z"/>
<path fill="#B9D0B6" d="M781,482.97c-1.65,1.97-3.67,0.93-5.53,0.6c-2.77-0.49-5.49-1.32-8.27-1.74c-4.51-0.67-8.85-1.34-9.33-7.2
	c-0.05-0.6-0.48-1.35-0.97-1.71c-5.91-4.38-2.79-9.83-1.83-15.02c1.47,0.73,2.94,1.46,4.41,2.2c1.65,0.84,2.93,1.36,1.75,3.97
	c-1.67,3.66,0.98,6.31,3.75,8.25C770.22,475.99,775.65,479.43,781,482.97z"/>
<path fill="#687F68" d="M663.37,581.5c1.85-1.47,3.46,0,5.05,0.47c13.23,3.89,26.44,7.85,39.65,11.8c1.9,0.57,3.52,0.5,5.61-0.14
	c13.05-4.02,25.71-9.07,38.59-13.54c1.03-0.36,2.64-1.96,3.39-0.08c0.65,1.61-1.28,2.16-2.42,2.58
	c-12.95,4.75-25.93,9.41-38.89,14.13c-1.01,0.37-1.88,0.22-2.88-0.07c-14.84-4.31-29.7-8.55-44.53-12.87
	C665.62,583.39,663.84,583.49,663.37,581.5z"/>
<path fill="#E4A694" d="M890.84,98.5c13.2-6.14,34.36,6.65,34.5,20.28C915.18,109.81,904.66,102.27,890.84,98.5z"/>
<path fill="#CD9655" d="M433.2,507.48c16.04-4.63,30.8-9.09,45.86-12.53c1.29-0.29,2.78-0.65,2.97,1.42
	c0.17,1.81-1.09,2.2-2.51,2.38c-2.64,0.34-5.27,0.87-7.92,0.97c-2.81,0.11-5.46-0.16-4.61,4.11c0.38,1.92-1.34,1.36-2.39,1.31
	c-2.83-0.14-5.68-0.11-8.47-0.55c-3.7-0.58-6.74-0.64-6.85,4.33c-0.04,2.01-1.33,1.81-2.81,1.45
	C442.49,509.44,438.48,508.62,433.2,507.48z"/>
<path fill="#B4C2A8" d="M510.74,510.17c-1.33-2.18-2.85-2.28-4.64-1.98c-3.78,0.63-7.56,1.32-11.37,1.61
	c-3.82,0.3-4.7,1.71-2.83,5.08c0.79,1.42,1.15,3.07,1.72,4.67c-6.73,0.33-13.03-5.82-12.65-12.03c0.09-1.44,0.96-1.45,1.94-1.66
	c8.64-1.88,17.25,0.09,25.87,0.22C510.82,506.11,510.94,507.73,510.74,510.17z"/>
<path fill="#738C6F" d="M649.95,557.81c-2.96,3.96-6.41,3.77-9.14,4.84c-4.47,1.76-9.16,2.92-13.73,4.42
	c-1.44,0.47-2.68,0.79-4.29,0.3c-12.69-3.87-25.43-7.57-38.13-11.39c-1.54-0.46-4.3-0.26-3.41-3.06c0.88-2.81,3.19-1.65,5.01-0.97
	c11.52,4.25,23.05,8.45,34.49,12.89c2.64,1.02,4.85,1.32,7.59,0.3C635.02,562.64,641.87,560.52,649.95,557.81z"/>
<path fill="#778E72" d="M624.81,563.64c-0.76-0.26-1.54-0.5-2.31-0.79c-12.6-4.7-25.2-9.38-37.78-14.13
	c-1.06-0.4-3.16-0.36-2.44-2.33c0.79-2.17,2.55-0.9,3.79-0.4c11.1,4.43,22.21,8.82,33.22,13.48c3.29,1.39,6.16,1.62,9.49,0.19
	c5.79-2.49,11.73-4.62,17.62-6.88c0.84-0.32,1.87-1.2,2.38,0.38c0.3,0.93-0.19,1.6-1.01,2.01
	C640.48,558.87,632.61,561,624.81,563.64z"/>
<path fill="#789072" d="M644.93,574.51c-1.78,3.94-4.79,3.23-6.88,4.3c-8.86,4.51-17.69,4.57-27.13,1.15
	c-8.23-2.99-16.97-4.54-25.46-6.8c-1.51-0.4-3.94-0.6-3.41-2.76c0.62-2.51,2.8-0.89,4.17-0.51c10.87,3.02,21.76,5.99,32.52,9.36
	c3.85,1.2,7.31,1.28,11.06-0.06C634.44,577.53,639.21,576.26,644.93,574.51z"/>
<path fill="#748970" d="M645.77,564.11c-3.36,3.83-7.01,4-10.01,5.42c-6.87,3.27-13.53,3.55-21,0.83
	c-9.64-3.5-19.84-5.49-29.78-8.17c-1.47-0.4-3.99-0.23-3.38-2.6c0.62-2.41,2.76-1.04,4.21-0.61c10.84,3.18,21.7,6.27,32.45,9.72
	c4.51,1.45,8.62,1.5,13.05-0.22C635.57,566.83,640.08,565.8,645.77,564.11z"/>
<path fill="#769173" d="M722.88,581.74c-3.41,1.31-6.84,2.59-10.23,3.96c-1.15,0.47-2.22,0.5-3.39,0.15
	c-13.24-3.89-26.5-7.71-39.71-11.7c-2.22-0.67-4.77-1.17-6.97-4.06c7.31,0.77,13.51,2.32,19.63,4.12c9.25,2.71,18.48,5.5,27.62,8.53
	c4.49,1.49,7.96-1.63,12-1.96C722.87,580.35,723.05,580.85,722.88,581.74z"/>
<path fill="#728C70" d="M807.82,544.05c-0.14,1.75-1.64,1.98-2.83,2.39c-12.42,4.28-24.93,8.28-37.71,11.4
	c-0.94,0.23-2.42,1.3-3.07-0.22c-0.67-1.57,0.53-2.39,1.96-2.83c13.02-4.04,26.03-8.08,39.04-12.15
	C806.65,542.19,807.89,541.84,807.82,544.05z"/>
<path fill="#6A8567" d="M749.92,542.06c4.2-3.52,9.31-4.98,14.5-5.91c3.34-0.6,7.17-0.13,8.32,3.62c1.13,3.67-2.34,5.01-5.03,6.27
	c-2.23,1.05-4.57,1.87-6.87,2.79c0.51-2.53-1.05-3.51-3.09-4.17C755.14,543.81,752.53,542.93,749.92,542.06z"/>
<path fill="#729071" d="M807.77,550.96c0.03,1.94-1.39,2.48-2.87,2.88c-12.5,3.31-25,6.61-37.51,9.85
	c-0.98,0.25-2.51,0.97-2.87-0.75c-0.3-1.43,0.96-1.83,2.15-2.19c12.7-3.81,25.39-7.66,38.08-11.49
	C806.33,548.78,807.8,548.55,807.77,550.96z"/>
<path fill="#708B6B" d="M711.99,535.96c-0.39,7.01-5.16,9.8-11.07,11.49c-6.28,1.79-12.59,2.64-18.96,0.45
	C691.97,543.92,701.98,539.94,711.99,535.96z"/>
<path fill="#6F8F70" d="M766.71,581.87c-1.09,0.1-1.97,0.18-2.28-0.86c-0.26-0.88-0.01-1.66,0.85-2.1c0.59-0.3,1.2-0.59,1.84-0.76
	c12.32-3.46,24.63-6.93,36.97-10.32c1.06-0.29,2.74-1.71,3.21,0.52c0.34,1.58-1.18,2.18-2.5,2.58c-9.4,2.78-18.79,5.59-28.21,8.33
	C773.24,580.23,769.85,581.05,766.71,581.87z"/>
<path fill="#6F856D" d="M583,564.89c13.42,2.5,25.87,5.91,38.12,10.02c2.73,0.91,4.9,0.99,7.54-0.16c4.11-1.78,8.42-3.08,12.67-4.52
	c0.85-0.29,2.03-0.9,2.53,0.43c0.35,0.95-0.47,1.56-1.28,1.81c-8.58,2.66-16.63,7.21-26.39,3.58c-9.16-3.4-18.84-5.44-28.28-8.09
	C586.36,567.53,584.59,567.5,583,564.89z"/>
<path fill="#709272" d="M807.6,556.99c-0.25,1.7-1.37,2.09-2.51,2.4c-12.8,3.47-25.61,6.94-38.42,10.38
	c-0.91,0.24-2.15,0.56-2.46-0.78c-0.48-2.08,1.19-2.47,2.65-2.85c9.31-2.41,18.63-4.8,27.95-7.19c3.37-0.87,6.75-1.72,10.12-2.61
	C806.06,556.04,807.18,555.6,807.6,556.99z"/>
<path fill="#6C8C6D" d="M807.84,562.24c-0.42,2.19-2.02,2.37-3.39,2.77c-12.07,3.54-24.15,7.09-36.25,10.55
	c-1.25,0.36-3.03,1.43-3.79-0.66c-0.52-1.42,0.7-2.03,1.9-2.35c13.43-3.57,26.87-7.15,40.31-10.7
	C806.88,561.79,807.23,562.04,807.84,562.24z"/>
<path fill="#ACBFA5" d="M489.57,502.57c-1.84,0.2-3.67,0.47-5.52,0.59c-7.51,0.48-7.76,0.87-4.73,7.91
	c0.84,1.95,1.71,3.88,2.67,6.06c-5.05,0.84-7.38-1.53-9.14-5.66c-3.91-9.19-4.07-9.16,5.64-9.8
	C482.14,501.42,485.82,500.55,489.57,502.57z"/>
<path fill="#6E866D" d="M731.82,432.86c3.03,3.84,3.14,8.62,4.2,13.09c0.3,1.25-0.09,2.8,1.86,2.96c0,4.61,0,9.22,0,14.15
	c-2.22-1.01-2.09-3.09-2.59-4.6c-1.62-4.84-2.78-9.84-4.49-14.64C729.41,439.9,728.98,436.29,731.82,432.86z"/>
<path fill="#6D876F" d="M807.64,578.3c-0.31,1.97-1.69,2.06-2.69,2.36c-12.23,3.63-24.48,7.2-36.72,10.77
	c-1.06,0.31-2.52,1.11-3.08-0.22c-0.63-1.5,1-1.83,2.06-2.13c12.91-3.69,25.82-7.35,38.74-10.99
	C806.37,577.97,806.89,578.2,807.64,578.3z"/>
<path fill="#6D816A" d="M703.91,598.03c-12.55-2.49-25.05-5.2-37.35-8.74c-1.3-0.37-3.66-0.3-3.14-2.34
	c0.62-2.42,2.76-0.99,4.15-0.6c12.46,3.52,24.9,7.13,37.34,10.72C705.13,597.97,704.95,598.46,703.91,598.03z"/>
<path fill="#637E66" d="M807.53,574.57c-13.99,5.12-28.42,8.74-42.74,12.75c-0.21-0.69-0.42-1.37-0.62-2.06
	c14.3-4.11,28.6-8.22,42.9-12.33C807.22,573.47,807.38,574.02,807.53,574.57z"/>
<path fill="#B5C3AE" d="M496.23,516.34c7.65-0.98,15.1-0.94,22.54-2.23c-5.5,3.42-10.26,8.54-17.55,7.66
	C497.52,521.33,497.56,521.01,496.23,516.34z"/>
<path fill="#708A6C" d="M761.03,629.9c6.88-3.26,13.64-4.41,20.03,1.11c-3.5,1.28-6.92,2.87-10.52,3.76
	C766.21,635.84,764,631.94,761.03,629.9z"/>
<path fill="#4E6051" d="M703.91,598.03c0.34-0.32,0.68-0.64,1.01-0.96c5.89,2.84,11.49,1.21,17.17-0.91
	c9.31-3.48,18.7-6.77,28.08-10.05c1.79-0.63,3.52-1.85,5.83-1.29c-0.18,2.48-2.15,2.68-3.76,3.19
	c-12.47,3.98-24.94,7.95-37.43,11.86C710.92,601.09,707.51,598.87,703.91,598.03z"/>
<path fill="#70896C" d="M659.89,537.77c0.16-6.58,3.95-9.63,12.42-9.6c2.94,0.01,5.89,0.62,8.83,0.95
	C674.06,532,666.98,534.88,659.89,537.77z"/>
<path fill="#6D856D" d="M787.98,544.95c-0.79-3.53,2.06-5.85,2.91-8.84c5-0.02,9.56,1.93,15.72,3.23
	C799.6,541.58,793.99,543.85,787.98,544.95z"/>
<path fill="#738D70" d="M761.99,529.94c-6.73,4.51-13.43,3.61-20.12-0.11C748.61,524.96,755.3,526.79,761.99,529.94z"/>
<path fill="#668366" d="M792.84,627.67c-1.61-3.81-0.59-7.02,2.23-9.82c3.8,1.55,7.14,3.83,11.22,6.74
	C801.26,625.75,797.05,626.71,792.84,627.67z"/>
<path fill="#576E59" d="M722.88,581.74c-0.35-0.32-0.7-0.64-1.05-0.96c11.48-4.24,22.97-8.47,34.87-12.86
	c-1.62,3.71-1.62,3.71-16.22,8.29C734.61,578.05,728.75,579.89,722.88,581.74z"/>
<path fill="#768C72" d="M648.9,547.66c-2.26,0.74-4.05-0.73-5.92-1.51c-6.6-2.76-13.17-5.59-19.72-8.47c-1.12-0.49-2.97-1.05-2-2.75
	c0.75-1.3,2.17-0.07,3.06,0.34c7.54,3.51,14.87,7.5,22.86,9.99C648.12,545.56,649.02,546.16,648.9,547.66z"/>
<path fill="#6B8D6C" d="M751.86,434.84c-5.13-5.81-3.61-12.91,4.04-18.89C754.91,422.32,754.11,428.73,751.86,434.84z"/>
<path fill="#F3F3F2" d="M760.09,561.98c1.59,7.51,0.54,15.13,0.93,22.69c0.12,2.42-0.74,4.97,0.78,7.24
	c0.39,1.63-0.19,2.76-1.91,2.59c-1.37-0.13-0.87-1.5-0.95-2.41C758.04,582.01,758.86,571.98,760.09,561.98z"/>
<path fill="#C1D3C0" d="M745.83,464.83c-1.35-7.36-2.3-14.71,1.13-21.82c2.53,2.21,3,4.61,2.03,8.01
	C747.69,455.53,747.49,460.35,745.83,464.83z"/>
<path fill="#748F73" d="M629.99,597.91c-1.61-2.6-2.82-5.21-0.07-7.85c3.82-0.76,7.41,0.73,11.99,0.96
	C637.71,594.03,633.93,596.1,629.99,597.91z"/>
<path fill="#B2B198" d="M466.23,508.18c-3.45,1.55-6.13,4.94-10.2,4.21c-1.72-0.31-4.31,0.22-3.76-3.12
	c0.46-2.78,2.39-2.19,4.14-2.04C459.69,507.51,462.96,507.86,466.23,508.18z"/>
<path fill="#698866" d="M737.88,433.04c-5.34-5.04-5.34-12.08,0.01-17.1C738.31,421.64,738.43,427.34,737.88,433.04z"/>
<path fill="#AAB1A9" d="M524.81,512.71c4.57,0.46,8.34,0.84,12.1,1.23c0.98,0.1,2.08,0.23,2.03,1.58c-0.04,0.98-0.92,1.18-1.69,1.52
	C531.5,519.59,529.74,519.09,524.81,512.71z"/>
<path fill="#6B7F69" d="M644.34,581.56c-6.29,2.27-12.23,5.6-19.68,4.35c6.35-2.1,12.7-4.19,19.04-6.29
	C643.91,580.27,644.13,580.91,644.34,581.56z"/>
<path fill="#7B8A79" d="M708.33,424.45c3.75-1.6,6.74-2.83,9.7-4.16c1.06-0.47,1.95-0.59,2.41,0.62c0.51,1.36,1.25,2.84,1.13,4.19
	c-0.12,1.23-1.58,0.55-2.49,0.45C715.8,425.22,712.53,424.88,708.33,424.45z"/>
<path fill="#6A8165" d="M598.69,579.16c-5.78,2-10.83-0.44-16.01-1.93c-0.29-0.08-0.62-0.83-0.55-1.18c0.24-1.14,1.13-0.91,1.94-0.7
	C588.95,576.62,593.82,577.89,598.69,579.16z"/>
<path fill="#6E876C" d="M770.97,422.95c5.39-3.41,7.35-3.02,15.03,3C780.99,424.95,775.98,423.95,770.97,422.95z"/>
<path fill="#869188" d="M507.67,511.53c-4.25,1.67-8.56,2.25-13,1.75C498.87,511.56,503.26,511.12,507.67,511.53z"/>
<path fill="#B6BBA8" d="M522.44,515.17c1.46,1.31,3.14,2.28,3.7,4.42c-2.22,0.63-4.24,1.69-6.67,1.21
	C519.74,518.51,521.27,517.01,522.44,515.17z"/>
<path fill="#767D73" d="M767.63,437.01c-4.1-0.63-6.83-1-9.54-1.49c-0.9-0.16-2.11-0.2-2.07-1.6c0.02-0.64,0.01-1.53,0.39-1.88
	c1.01-0.91,1.7,0.27,2.51,0.67C761.4,433.96,763.89,435.17,767.63,437.01z"/>
<path fill="#9BA798" d="M471.4,515.05c-2.82,0.23-5.5-0.1-8.15-1.21C468.47,510.51,469.78,510.7,471.4,515.05z"/>
<path fill="#70836C" d="M636.84,587.14c1.91-0.73,3.81-1.47,5.72-2.18c1.09-0.4,1.94-0.19,2.15,1.11c0.18,1.16-0.35,1.97-1.52,2.02
	c-2.06,0.09-4.12,0.03-6.18,0.03C636.96,587.8,636.9,587.47,636.84,587.14z"/>
<path fill="#ACAC9F" d="M516.88,519.21c-1.38,4.59-3.87,5.17-7.41,4.36C511.21,521.04,513.86,520.77,516.88,519.21z"/>
<path fill="#4D544D" d="M776.14,378c3.27-1.01,5.24-1.59,7.11-0.02c0.48,0.4,0.78,1.3,0.02,1.66
	C781.04,380.71,779.25,379.28,776.14,378z"/>
<path fill="#6D6F6D" d="M729.1,534.12c-0.32,0.56-0.64,1.13-0.96,1.69c-3.13-0.12-5.78-1.57-8.52-2.82
	C723.01,532.08,725.82,534.7,729.1,534.12z"/>
<path fill="#050605" d="M912.07,197.07c-12.35-0.65-23.91-5.08-34.76-12.05c-13.13-8.43-24.16-19.13-34.52-30.63
	c-0.7-0.77-2.27-1.65-1.06-2.82c1.32-1.28,2.42,0.14,3.33,1.05c5.55,5.51,10.89,11.24,16.62,16.55
	c12.98,12.02,27.49,21.16,45.31,24.5c17.67,3.31,34.1-9.2,34.91-27.16c0.04-0.83,0.01-1.66,0.04-2.49c0.05-1.15-0.05-2.66,1.53-2.62
	c1.56,0.03,1.46,1.54,1.47,2.69c0.12,11.01-4.01,20.07-12.73,26.82C926.51,195.31,919.86,197.15,912.07,197.07z"/>
<path fill="#050705" d="M895.47,171c11.05,0.58,21.04-1.99,29.13-10.03c5.09-5.06,7.47-11.22,7.23-18.38
	c-0.04-1.24-0.91-2.97,1.16-3.06c1.67-0.07,1.78,1.58,1.94,2.94c1.1,9.23-5.75,20.85-15.07,26.21c-10.35,5.94-21.59,5.61-32.89,5.26
	c-1.17-0.04-2.53-0.32-2.38-1.86c0.14-1.34,1.49-1.04,2.41-1.06C889.82,170.97,892.65,171,895.47,171z"/>
<path fill="#060705" d="M813.54,126.57c-1.26-0.36-1.55-1.22-1.48-2.31c0.15-2.18,7.7-11.39,9.96-11.96
	c0.71-0.18,1.82-0.13,2.29,0.31c0.74,0.69-0.01,1.5-0.58,2.07c-3.39,3.39-6.78,6.77-9.12,11.03
	C814.39,126.08,813.87,126.3,813.54,126.57z"/>
<path fill="#FEFEFE" d="M438.02,549.71c-0.05-10.36-0.03-10.47,10.18-8.8c15.57,2.54,31.1,5.34,46.68,7.8
	c2.94,0.47,4.07,1.55,3.92,4.43c-0.25,4.98-0.4,9.96-0.48,14.94c-0.04,2.29-0.87,2.67-3.09,2.26c-17.95-3.34-35.93-6.55-53.91-9.75
	c-2.31-0.41-3.55-1.31-3.33-3.9C438.18,554.38,438.02,552.03,438.02,549.71z"/>
<path fill="#B6D0B0" d="M824.92,613.01c-7.38-3.31-14.77-6.63-23.32-10.47c11.89-3.4,22.55-6.47,33.24-9.47
	c2.22-0.62,4.17,0.82,6.24,1.3c6.29,1.46,12.52,3.13,18.78,4.72c-0.52,4.72-2.02,6.12-6.12,5.02c-5.97-1.6-10.61-0.16-15.41,3.93
	C834.79,611.06,829.78,612.39,824.92,613.01z"/>
<path fill="#6B8668" d="M824.92,613.01c4.32-4.17,11.21-3.1,15.43-8.27c2.64-3.23,7.96-4.09,12.06-2.22
	c4.48,2.04,6.04,0.06,7.44-3.43c3.3,0.1,6.39,1.05,10.13,2.55c-12.27,4.26-24,8.13-35.54,12.47
	C830.77,615.49,827.86,615.45,824.92,613.01z"/>
<path fill="#FDFDFD" d="M819.73,281.29c11.74-2.06,23.14-4.04,34.52-6.07c3.26-0.58,2.59,1.45,2.3,3.27
	c-2.47,15.64-17.18,21.54-29.74,11.9C823.76,288.05,821.46,285.11,819.73,281.29z"/>
<path fill="#698465" d="M588.03,606.06c-2.78,0.01-5.64-0.23-6.8-3.12c-1.06-2.64-0.08-5.2,1.69-7.44
	c3.53-4.45,11.42-6.97,16.76-5.28c4.74,1.5,6.07,6.07,2.65,9.79C598.52,604.16,593.55,605.83,588.03,606.06z"/>
<path fill="#6C8968" d="M758.05,621.85c-3.36-0.29-7.1-0.98-8.29-4.79c-1.21-3.87,1.96-6.24,4.86-7.71
	c5.05-2.56,10.39-4.5,16.22-2.38c2.27,0.83,4.31,2.02,4.83,4.56c0.56,2.77-1.59,4.28-3.4,5.61
	C768.15,620.19,763.29,621.26,758.05,621.85z"/>
<path fill="#6D8769" d="M712.52,552.04c-0.83,0-1.67,0.07-2.49-0.01c-1.9-0.21-4.04-0.88-4.4-2.7c-0.45-2.3,2.09-2.58,3.66-3.31
	c2.8-1.29,5.8-1.41,8.8-1.12c1.69,0.16,3.49,0.6,3.79,2.58c0.26,1.74-1.31,2.52-2.59,3.31C717.2,552.05,714.86,552.09,712.52,552.04
	z"/>
</svg>
